<svg width="80" height="80" viewBox="0 0 80 80" fill="none" xmlns="http://www.w3.org/2000/svg">
<path d="M77.0377 34C75.3969 34 74.0362 35.36 74.0362 37H67.8732C67.2729 31.52 65.1119 26.48 61.7902 22.4L66.1524 18.04L66.1924 18.08C67.353 19.24 69.2739 19.24 70.4345 18.08C71.595 16.92 71.595 15 70.4345 13.84L66.1924 9.6C65.0318 8.44 63.1109 8.44 61.9503 9.6C60.7897 10.76 60.7897 12.64 61.9103 13.8L57.5482 18.16C53.4662 14.88 48.4637 12.72 42.981 12.12V6H43.021C44.6619 6 46.0225 4.64 46.0225 3C46.0225 1.36 44.6619 0 43.021 0H37.0181C35.3773 0 34.0166 1.36 34.0166 3C34.0166 4.64 35.3373 5.96 36.9781 6V12.2C31.4954 12.76 26.493 14.96 22.411 18.24L18.0488 13.88L18.0888 13.84C19.2494 12.68 19.2494 10.76 18.0888 9.6C16.9283 8.44 15.0073 8.44 13.8468 9.6L9.6047 13.84C8.44413 15 8.44413 16.92 9.6047 18.08C10.7653 19.24 12.6462 19.24 13.8068 18.12L18.1689 22.48C14.8873 26.56 12.7262 31.52 12.166 37H6.00294C6.00294 35.36 4.64227 34 3.00147 34C1.36067 34 0 35.36 0 37V43C0 44.64 1.36067 46 3.00147 46C4.64227 46 6.00294 44.64 6.00294 43H12.166C12.7662 48.48 14.9273 53.44 18.1689 57.52L13.8068 61.88C12.6462 60.72 10.7653 60.76 9.6047 61.92C8.44413 63.08 8.44413 65 9.6047 66.16L13.8468 70.4C15.0073 71.56 16.9283 71.56 18.0888 70.4C19.2494 69.24 19.2494 67.32 18.0888 66.16L18.0488 66.12L22.411 61.76C26.493 65.04 31.4554 67.2 36.9381 67.8V74C35.2973 74.04 33.9766 75.36 33.9766 77C33.9766 78.64 35.3373 80 36.9781 80H42.981C44.6218 80 45.9825 78.64 45.9825 77C45.9825 75.36 44.6218 74 42.981 74H42.941V67.84C48.4237 67.28 53.4261 65.08 57.5081 61.8L61.8703 66.16C60.7097 67.32 60.7497 69.2 61.9103 70.36C63.0709 71.52 64.9918 71.52 66.1524 70.36L70.3944 66.12C71.555 64.96 71.555 63.04 70.3944 61.88C69.2339 60.72 67.3129 60.72 66.1524 61.88L66.1123 61.92L61.7502 57.56C65.0318 53.48 67.2329 48.48 67.8332 42.96H73.9962C73.9962 44.6 75.3569 45.96 76.9977 45.96C78.6385 45.96 79.9991 44.6 79.9991 42.96V36.96C80.0392 35.36 78.6785 34 77.0377 34ZM47.023 24C49.2241 24 51.025 25.8 51.025 28C51.025 30.2 49.2241 32 47.023 32C44.8219 32 43.021 30.2 43.021 28C43.021 25.8 44.8219 24 47.023 24ZM40.0196 44C37.8185 44 36.0176 42.2 36.0176 40C36.0176 37.8 37.8185 36 40.0196 36C42.2207 36 44.0215 37.8 44.0215 40C44.0215 42.2 42.2207 44 40.0196 44ZM33.0162 24C35.2172 24 37.0181 25.8 37.0181 28C37.0181 30.2 35.2172 32 33.0162 32C30.8151 32 29.0142 30.2 29.0142 28C29.0142 25.8 30.8151 24 33.0162 24ZM26.0127 44C23.8116 44 22.0108 42.2 22.0108 40C22.0108 37.8 23.8116 36 26.0127 36C28.2138 36 30.0147 37.8 30.0147 40C30.0147 42.2 28.2138 44 26.0127 44ZM33.0162 56C30.8151 56 29.0142 54.2 29.0142 52C29.0142 49.8 30.8151 48 33.0162 48C35.2172 48 37.0181 49.8 37.0181 52C37.0181 54.2 35.2172 56 33.0162 56ZM47.023 56C44.8219 56 43.021 54.2 43.021 52C43.021 49.8 44.8219 48 47.023 48C49.2241 48 51.025 49.8 51.025 52C51.025 54.2 49.2241 56 47.023 56ZM50.0245 40C50.0245 37.8 51.8254 36 54.0264 36C56.2275 36 58.0284 37.8 58.0284 40C58.0284 42.2 56.2275 44 54.0264 44C51.8254 44 50.0245 42.2 50.0245 40Z" fill="#1F2933"/>
</svg>
